<svg xmlns="http://www.w3.org/2000/svg"  viewBox="0 0 50 50" width="50px" height="50px"><path d="M 22 5 C 11.033 5 2 14.033 2 25 C 2 35.967 11.033 45 22 45 C 30.165 45 37.032938 39.939578 40.085938 32.892578 L 40.095703 32.882812 C 41.465703 30.227812 46.012797 19.491859 47.591797 14.880859 C 47.759797 14.378859 48 13.563078 48 12.455078 C 48 8.4090781 44.727641 5 40.681641 5 L 22 5 z M 22 9 C 30.656 9 37 16.344 37 25 C 37 33.656 30.656 41 22 41 C 13.344 41 6 33.656 6 25 C 6 16.344 13.344 9 22 9 z M 20.345703 11 C 19.191703 11 18.510547 11.784422 18.435547 12.982422 C 18.398547 13.574422 18.168625 13.972203 17.765625 14.408203 C 17.047625 15.183203 16.152609 15.86925 15.974609 17.03125 C 15.763609 18.40425 15.520359 19.772484 15.318359 21.146484 C 15.221359 21.803484 15.157719 22.470766 15.136719 23.134766 C 15.114719 23.840766 15.305391 24.583 15.150391 25.25 C 14.775391 26.859 14.221687 28.424391 13.804688 30.025391 C 13.612687 30.760391 13.304047 31.285984 12.623047 31.708984 C 11.083047 32.664984 10.647344 34.090578 11.277344 35.642578 C 11.562344 36.345578 12.244172 36.706641 12.951172 36.556641 C 13.743172 36.389641 13.643828 35.828625 13.548828 35.265625 C 13.447828 34.662625 13.865719 34.634109 14.261719 34.662109 C 15.020719 34.716109 15.461469 34.390594 15.730469 33.683594 C 16.530469 31.583594 17.361359 29.49425 18.193359 27.40625 C 18.520359 26.58525 18.843875 26.490906 19.421875 27.128906 C 20.415875 28.225906 21.349688 29.377766 22.304688 30.509766 C 22.364687 30.580766 22.414547 30.673672 22.435547 30.763672 C 22.823547 32.442672 23.2885 34.108641 23.5625 35.806641 C 23.7585 37.017641 24.562547 37.935953 25.810547 38.001953 C 26.159547 38.019953 26.630938 38.022828 26.835938 37.798828 C 26.968937 37.652828 26.804953 37.103031 26.626953 36.832031 C 25.967953 35.828031 25.825125 34.727547 25.703125 33.560547 C 25.497125 31.604547 25.389672 29.576484 23.888672 28.021484 C 23.466672 27.584484 23.068891 27.117594 23.462891 26.433594 C 23.518891 26.336594 23.480297 26.121438 23.404297 26.023438 C 22.707297 25.115437 22.060766 24.154656 21.259766 23.347656 C 20.736766 22.820656 20.540687 22.441969 20.929688 21.792969 C 21.121688 21.472969 21.328422 21.111859 21.357422 20.755859 C 21.417422 20.018859 21.754562 19.746672 22.476562 19.638672 C 23.500563 19.485672 24.590203 19.398203 25.283203 18.408203 C 25.387203 18.260203 25.738688 18.16775 25.929688 18.21875 C 26.650688 18.41175 27.090156 18.247859 27.160156 17.380859 L 27.826172 17.228516 C 28.391172 16.948516 28.782922 16.758547 29.169922 16.560547 C 29.622922 16.329547 30.054344 16.045094 30.527344 15.871094 C 30.941344 15.719094 31.399578 15.687234 31.767578 15.615234 C 31.591578 15.232234 31.427922 14.880797 31.294922 14.591797 C 30.406922 14.591797 29.476359 14.840437 28.818359 14.523438 C 28.125359 14.188437 27.560453 14.393375 26.939453 14.359375 C 26.511453 14.336375 26.008828 14.401172 25.673828 14.201172 C 24.756828 13.653172 23.987828 14.033672 23.173828 14.388672 C 22.974828 14.475672 22.731766 14.461141 22.509766 14.494141 C 22.489766 14.251141 22.437078 14.005625 22.455078 13.765625 C 22.482078 13.393625 22.66675 13.001203 22.59375 12.658203 C 22.35775 11.555203 21.384703 11 20.345703 11 z M 23.330078 15.873047 C 23.626949 15.880863 23.955719 15.966391 24.308594 16.134766 C 23.637594 16.446766 23.073188 16.725891 22.492188 16.962891 C 22.383187 17.006891 22.176219 16.917219 22.074219 16.824219 C 22.027219 16.782219 22.092109 16.558078 22.162109 16.455078 C 22.430234 16.061953 22.835293 15.86002 23.330078 15.873047 z"/></svg>